<svg xmlns="http://www.w3.org/2000/svg" xmlns:xlink="http://www.w3.org/1999/xlink" width="800" zoomAndPan="magnify" viewBox="0 0 600 599.999999" height="800" preserveAspectRatio="xMidYMid meet" version="1.0"><path fill="#ff3a3a" d="M 602.292969 301.148438 C 602.292969 306.074219 602.171875 311 601.929688 315.921875 C 601.691406 320.847656 601.328125 325.761719 600.84375 330.664062 C 600.359375 335.570312 599.757812 340.460938 599.035156 345.335938 C 598.3125 350.210938 597.46875 355.0625 596.507812 359.898438 C 595.546875 364.730469 594.464844 369.539062 593.269531 374.320312 C 592.070312 379.101562 590.757812 383.847656 589.328125 388.566406 C 587.894531 393.28125 586.351562 397.960938 584.691406 402.601562 C 583.03125 407.242188 581.257812 411.835938 579.371094 416.390625 C 577.484375 420.945312 575.488281 425.449219 573.378906 429.902344 C 571.273438 434.359375 569.058594 438.761719 566.734375 443.105469 C 564.410156 447.453125 561.984375 451.742188 559.449219 455.96875 C 556.914062 460.195312 554.28125 464.359375 551.542969 468.457031 C 548.804688 472.554688 545.964844 476.582031 543.03125 480.539062 C 540.09375 484.5 537.0625 488.382812 533.9375 492.191406 C 530.808594 496.003906 527.59375 499.734375 524.28125 503.386719 C 520.972656 507.035156 517.574219 510.605469 514.089844 514.089844 C 510.605469 517.574219 507.035156 520.972656 503.386719 524.28125 C 499.734375 527.59375 496.003906 530.808594 492.191406 533.9375 C 488.382812 537.0625 484.5 540.09375 480.539062 543.03125 C 476.582031 545.964844 472.554688 548.804688 468.457031 551.542969 C 464.359375 554.28125 460.195312 556.914062 455.96875 559.449219 C 451.742188 561.984375 447.453125 564.410156 443.105469 566.734375 C 438.761719 569.058594 434.359375 571.273438 429.902344 573.378906 C 425.449219 575.488281 420.945312 577.484375 416.390625 579.371094 C 411.835938 581.257812 407.242188 583.03125 402.601562 584.691406 C 397.960938 586.351562 393.28125 587.894531 388.566406 589.328125 C 383.847656 590.757812 379.101562 592.070312 374.320312 593.269531 C 369.539062 594.464844 364.730469 595.546875 359.898438 596.507812 C 355.0625 597.46875 350.210938 598.3125 345.335938 599.035156 C 340.460938 599.757812 335.570312 600.359375 330.664062 600.84375 C 325.761719 601.328125 320.847656 601.691406 315.921875 601.929688 C 311 602.171875 306.074219 602.292969 301.148438 602.292969 C 296.21875 602.292969 291.292969 602.171875 286.371094 601.929688 C 281.449219 601.691406 276.535156 601.328125 271.628906 600.84375 C 266.726562 600.359375 261.835938 599.757812 256.960938 599.035156 C 252.085938 598.3125 247.230469 597.46875 242.394531 596.507812 C 237.5625 595.546875 232.753906 594.464844 227.972656 593.269531 C 223.195312 592.070312 218.445312 590.757812 213.730469 589.328125 C 209.011719 587.894531 204.335938 586.351562 199.695312 584.691406 C 195.054688 583.03125 190.457031 581.257812 185.902344 579.371094 C 181.351562 577.484375 176.84375 575.488281 172.390625 573.378906 C 167.933594 571.273438 163.535156 569.058594 159.1875 566.734375 C 154.839844 564.410156 150.554688 561.984375 146.328125 559.449219 C 142.097656 556.914062 137.9375 554.28125 133.839844 551.542969 C 129.742188 548.804688 125.710938 545.964844 121.753906 543.03125 C 117.796875 540.09375 113.910156 537.0625 110.101562 533.9375 C 106.292969 530.808594 102.5625 527.59375 98.910156 524.28125 C 95.257812 520.972656 91.6875 517.574219 88.203125 514.089844 C 84.71875 510.605469 81.320312 507.035156 78.011719 503.386719 C 74.703125 499.734375 71.484375 496.003906 68.355469 492.191406 C 65.230469 488.382812 62.199219 484.5 59.261719 480.539062 C 56.328125 476.582031 53.492188 472.554688 50.753906 468.457031 C 48.015625 464.359375 45.378906 460.195312 42.84375 455.96875 C 40.3125 451.742188 37.882812 447.453125 35.558594 443.105469 C 33.234375 438.761719 31.019531 434.359375 28.914062 429.902344 C 26.804688 425.449219 24.808594 420.945312 22.921875 416.390625 C 21.039062 411.835938 19.265625 407.242188 17.605469 402.601562 C 15.945312 397.960938 14.398438 393.28125 12.96875 388.566406 C 11.535156 383.847656 10.222656 379.101562 9.023438 374.320312 C 7.828125 369.539062 6.746094 364.730469 5.785156 359.898438 C 4.824219 355.0625 3.984375 350.210938 3.257812 345.335938 C 2.535156 340.460938 1.933594 335.570312 1.449219 330.664062 C 0.96875 325.761719 0.605469 320.847656 0.363281 315.921875 C 0.121094 311 0 306.074219 0 301.148438 C 0 296.21875 0.121094 291.292969 0.363281 286.371094 C 0.605469 281.449219 0.96875 276.535156 1.449219 271.628906 C 1.933594 266.726562 2.535156 261.835938 3.257812 256.960938 C 3.984375 252.085938 4.824219 247.230469 5.785156 242.394531 C 6.746094 237.5625 7.828125 232.753906 9.023438 227.972656 C 10.222656 223.195312 11.535156 218.445312 12.96875 213.730469 C 14.398438 209.011719 15.945312 204.335938 17.605469 199.695312 C 19.265625 195.054688 21.039062 190.457031 22.921875 185.902344 C 24.808594 181.351562 26.804688 176.84375 28.914062 172.390625 C 31.019531 167.933594 33.234375 163.535156 35.558594 159.1875 C 37.882812 154.839844 40.3125 150.554688 42.84375 146.328125 C 45.378906 142.097656 48.015625 137.9375 50.753906 133.839844 C 53.492188 129.742188 56.328125 125.710938 59.261719 121.753906 C 62.199219 117.796875 65.230469 113.910156 68.355469 110.101562 C 71.484375 106.292969 74.703125 102.5625 78.011719 98.910156 C 81.320312 95.257812 84.71875 91.6875 88.203125 88.203125 C 91.6875 84.71875 95.257812 81.320312 98.910156 78.011719 C 102.5625 74.703125 106.292969 71.484375 110.101562 68.355469 C 113.910156 65.230469 117.796875 62.199219 121.753906 59.261719 C 125.710938 56.328125 129.742188 53.492188 133.839844 50.753906 C 137.9375 48.015625 142.097656 45.378906 146.328125 42.84375 C 150.554688 40.3125 154.839844 37.882812 159.1875 35.558594 C 163.535156 33.234375 167.933594 31.019531 172.390625 28.914062 C 176.84375 26.804688 181.351562 24.808594 185.902344 22.921875 C 190.457031 21.039062 195.054688 19.265625 199.695312 17.605469 C 204.335938 15.945312 209.011719 14.398438 213.730469 12.96875 C 218.445312 11.535156 223.195312 10.222656 227.972656 9.023438 C 232.753906 7.828125 237.5625 6.746094 242.394531 5.785156 C 247.230469 4.824219 252.085938 3.984375 256.960938 3.257812 C 261.835938 2.535156 266.726562 1.933594 271.628906 1.449219 C 276.535156 0.96875 281.449219 0.605469 286.371094 0.363281 C 291.292969 0.121094 296.21875 0 301.148438 0 C 306.074219 0 311 0.121094 315.921875 0.363281 C 320.847656 0.605469 325.761719 0.96875 330.664062 1.449219 C 335.570312 1.933594 340.460938 2.535156 345.335938 3.257812 C 350.210938 3.984375 355.0625 4.824219 359.898438 5.785156 C 364.730469 6.746094 369.539062 7.828125 374.320312 9.023438 C 379.101562 10.222656 383.847656 11.535156 388.566406 12.96875 C 393.28125 14.398438 397.960938 15.945312 402.601562 17.605469 C 407.242188 19.265625 411.835938 21.039062 416.390625 22.921875 C 420.945312 24.808594 425.449219 26.804688 429.902344 28.914062 C 434.359375 31.019531 438.761719 33.234375 443.105469 35.558594 C 447.453125 37.882812 451.738281 40.3125 455.96875 42.84375 C 460.195312 45.378906 464.359375 48.015625 468.457031 50.753906 C 472.554688 53.492188 476.582031 56.328125 480.539062 59.261719 C 484.5 62.199219 488.382812 65.230469 492.191406 68.355469 C 496.003906 71.484375 499.734375 74.703125 503.386719 78.011719 C 507.035156 81.320312 510.605469 84.71875 514.089844 88.203125 C 517.574219 91.6875 520.972656 95.257812 524.28125 98.910156 C 527.59375 102.5625 530.808594 106.292969 533.9375 110.101562 C 537.0625 113.910156 540.09375 117.796875 543.03125 121.753906 C 545.964844 125.710938 548.804688 129.742188 551.542969 133.839844 C 554.28125 137.9375 556.914062 142.097656 559.449219 146.328125 C 561.984375 150.554688 564.410156 154.839844 566.734375 159.1875 C 569.058594 163.535156 571.273438 167.933594 573.378906 172.390625 C 575.488281 176.84375 577.484375 181.351562 579.371094 185.902344 C 581.257812 190.457031 583.03125 195.054688 584.691406 199.695312 C 586.351562 204.335938 587.894531 209.011719 589.328125 213.730469 C 590.757812 218.445312 592.070312 223.195312 593.269531 227.972656 C 594.464844 232.753906 595.546875 237.5625 596.507812 242.394531 C 597.46875 247.230469 598.3125 252.085938 599.035156 256.960938 C 599.757812 261.835938 600.359375 266.726562 600.84375 271.628906 C 601.328125 276.535156 601.691406 281.449219 601.929688 286.371094 C 602.171875 291.292969 602.292969 296.21875 602.292969 301.148438 Z M 602.292969 301.148438 " fill-opacity="1" fill-rule="nonzero"/><path fill="#fcfcfc" d="M 379.707031 467.351562 L 223.292969 467.351562 C 218.730469 467.351562 214.425781 465.546875 211.15625 462.277344 C 207.886719 459.003906 206.078125 454.703125 206.078125 450.140625 C 206.078125 445.582031 207.886719 441.277344 211.15625 438.007812 C 214.425781 434.738281 218.730469 432.929688 223.292969 432.929688 L 379.707031 432.929688 C 384.265625 432.929688 388.570312 434.738281 391.839844 438.007812 C 395.109375 441.277344 396.917969 445.578125 396.917969 450.140625 C 396.917969 454.703125 395.109375 459.003906 391.839844 462.277344 C 388.570312 465.546875 384.265625 467.351562 379.707031 467.351562 Z M 379.707031 467.351562 " fill-opacity="1" fill-rule="evenodd"/><path fill="#fcfcfc" d="M 218.550781 426.042969 L 192.746094 253.546875 L 409.605469 253.546875 L 383.796875 426.042969 Z M 305.265625 403.9375 C 298.746094 403.9375 293.429688 398.625 293.429688 392.105469 L 293.429688 282.378906 C 293.429688 279.257812 294.65625 276.332031 296.875 274.136719 C 299.089844 271.964844 302.082031 270.761719 305.265625 270.761719 C 311.675781 270.761719 316.882812 275.964844 316.882812 282.378906 L 316.882812 392.105469 C 316.882812 395.203125 315.699219 398.148438 313.527344 400.386719 C 311.308594 402.667969 308.382812 403.9375 305.265625 403.9375 Z M 305.265625 277.644531 C 302.488281 277.644531 300.316406 279.730469 300.316406 282.378906 L 300.316406 392.105469 C 300.316406 394.835938 302.53125 397.050781 305.265625 397.050781 C 307.824219 397.050781 309.996094 394.792969 309.996094 392.105469 L 309.996094 282.378906 C 309.996094 279.773438 307.867188 277.644531 305.265625 277.644531 Z M 351.609375 404.023438 C 351.070312 404.023438 350.511719 403.980469 349.949219 403.917969 C 343.519531 402.992188 339.042969 397.117188 339.925781 390.792969 L 354.554688 280.699219 C 354.878906 277.601562 356.449219 274.847656 359.007812 272.933594 C 361.441406 271.125 364.472656 270.285156 367.550781 270.566406 C 367.59375 270.566406 367.65625 270.589844 367.699219 270.589844 C 373.941406 271.46875 378.351562 277.191406 377.75 283.582031 C 377.75 283.625 377.75 283.667969 377.726562 283.710938 L 363.097656 393.867188 C 363.097656 393.890625 363.097656 393.890625 363.097656 393.910156 C 362.667969 396.988281 361.074219 399.742188 358.621094 401.636719 C 356.578125 403.183594 354.144531 404.023438 351.609375 404.023438 Z M 366.367188 277.386719 C 365.183594 277.386719 364.023438 277.753906 363.117188 278.441406 C 362.40625 278.980469 361.527344 279.902344 361.398438 281.410156 C 361.398438 281.453125 361.398438 281.496094 361.375 281.539062 L 346.746094 391.695312 C 346.746094 391.71875 346.746094 391.71875 346.746094 391.738281 C 346.574219 392.988281 346.894531 394.214844 347.671875 395.222656 C 348.464844 396.234375 349.605469 396.902344 350.917969 397.097656 C 353.480469 397.460938 355.890625 395.589844 356.277344 392.921875 L 370.886719 282.851562 C 371.121094 280.140625 369.378906 277.816406 366.796875 277.410156 C 366.667969 277.386719 366.515625 277.386719 366.367188 277.386719 Z M 357.976562 281.085938 Z M 258.707031 404.023438 C 256.167969 404.023438 253.734375 403.183594 251.691406 401.613281 C 249.238281 399.71875 247.667969 396.988281 247.21875 393.890625 C 247.21875 393.867188 247.21875 393.867188 247.21875 393.847656 L 232.800781 283.710938 C 231.917969 277.386719 236.394531 271.511719 242.828125 270.589844 C 242.871094 270.589844 242.933594 270.566406 242.976562 270.566406 C 249.367188 269.964844 255.070312 274.375 255.972656 280.613281 C 255.972656 280.636719 255.972656 280.636719 255.972656 280.65625 L 270.390625 390.792969 C 271.269531 397.117188 266.796875 402.992188 260.363281 403.914062 C 259.804688 403.980469 259.242188 404.023438 258.707031 404.023438 Z M 254.035156 392.921875 C 254.425781 395.589844 256.835938 397.441406 259.394531 397.074219 C 260.707031 396.882812 261.847656 396.214844 262.644531 395.203125 C 263.417969 394.191406 263.742188 392.964844 263.570312 391.71875 C 263.570312 391.695312 263.570312 391.695312 263.570312 391.675781 L 249.152344 281.539062 C 248.765625 278.9375 246.441406 277.171875 243.710938 277.386719 C 242.441406 277.582031 241.320312 278.246094 240.546875 279.238281 C 239.773438 280.246094 239.449219 281.472656 239.621094 282.722656 C 239.621094 282.742188 239.621094 282.742188 239.621094 282.765625 Z M 254.035156 392.921875 " fill-opacity="1" fill-rule="evenodd"/><path fill="#fcfcfc" d="M 425.53125 246.664062 L 176.820312 246.664062 C 172.257812 246.664062 167.953125 244.855469 164.683594 241.585938 C 161.414062 238.316406 159.605469 234.011719 159.605469 229.449219 C 159.605469 224.890625 161.414062 220.585938 164.683594 217.316406 C 167.953125 214.046875 172.257812 212.238281 176.820312 212.238281 L 425.53125 212.238281 C 430.09375 212.238281 434.398438 214.046875 437.667969 217.316406 C 440.9375 220.585938 442.746094 224.890625 442.746094 229.449219 C 442.746094 234.011719 440.9375 238.316406 437.667969 241.585938 C 434.398438 244.855469 430.09375 246.664062 425.53125 246.664062 Z M 425.53125 246.664062 " fill-opacity="1" fill-rule="evenodd"/><path fill="#fcfcfc" d="M 189.082031 205.355469 L 189.082031 195.027344 C 189.082031 181.730469 199.882812 170.929688 213.179688 170.929688 L 389.171875 170.929688 C 402.46875 170.929688 413.269531 181.730469 413.269531 195.027344 L 413.269531 205.355469 Z M 189.082031 205.355469 " fill-opacity="1" fill-rule="evenodd"/><path fill="#fcfcfc" d="M 243.730469 164.046875 L 243.730469 156.515625 C 243.730469 150.8125 245.992188 145.414062 250.058594 141.324219 C 254.144531 137.238281 259.523438 135 265.246094 135 L 337.105469 135 C 342.808594 135 348.207031 137.257812 352.296875 141.324219 C 356.382812 145.414062 358.621094 150.792969 358.621094 156.515625 L 358.621094 164.046875 Z M 243.730469 164.046875 " fill-opacity="1" fill-rule="evenodd"/></svg>