<svg xmlns="http://www.w3.org/2000/svg" xmlns:xlink="http://www.w3.org/1999/xlink" width="800" zoomAndPan="magnify" viewBox="0 0 600 599.999999" height="800" preserveAspectRatio="xMidYMid meet" version="1.0"><path fill="#5170ff" d="M 600 300 C 600 304.910156 599.878906 309.816406 599.636719 314.71875 C 599.398438 319.625 599.035156 324.519531 598.554688 329.40625 C 598.074219 334.292969 597.472656 339.164062 596.753906 344.019531 C 596.03125 348.875 595.191406 353.710938 594.234375 358.527344 C 593.277344 363.34375 592.203125 368.132812 591.007812 372.894531 C 589.816406 377.65625 588.507812 382.386719 587.082031 387.085938 C 585.65625 391.785156 584.117188 396.445312 582.464844 401.066406 C 580.808594 405.691406 579.042969 410.269531 577.164062 414.804688 C 575.285156 419.339844 573.296875 423.828125 571.195312 428.265625 C 569.097656 432.703125 566.890625 437.089844 564.578125 441.417969 C 562.261719 445.75 559.84375 450.019531 557.320312 454.230469 C 554.792969 458.441406 552.167969 462.589844 549.441406 466.671875 C 546.714844 470.753906 543.886719 474.765625 540.960938 478.710938 C 538.039062 482.652344 535.019531 486.523438 531.902344 490.316406 C 528.789062 494.113281 525.582031 497.828125 522.285156 501.46875 C 518.988281 505.105469 515.605469 508.660156 512.132812 512.132812 C 508.660156 515.605469 505.105469 518.988281 501.46875 522.285156 C 497.828125 525.582031 494.113281 528.789062 490.316406 531.902344 C 486.523438 535.019531 482.652344 538.039062 478.710938 540.960938 C 474.765625 543.886719 470.753906 546.714844 466.671875 549.441406 C 462.589844 552.167969 458.441406 554.792969 454.230469 557.320312 C 450.019531 559.84375 445.75 562.261719 441.417969 564.578125 C 437.089844 566.890625 432.703125 569.097656 428.265625 571.195312 C 423.828125 573.296875 419.339844 575.285156 414.804688 577.164062 C 410.269531 579.042969 405.691406 580.808594 401.066406 582.464844 C 396.445312 584.117188 391.785156 585.65625 387.085938 587.082031 C 382.386719 588.507812 377.65625 589.816406 372.894531 591.007812 C 368.132812 592.203125 363.34375 593.277344 358.527344 594.234375 C 353.710938 595.191406 348.875 596.03125 344.019531 596.753906 C 339.164062 597.472656 334.292969 598.074219 329.40625 598.554688 C 324.519531 599.035156 319.625 599.398438 314.71875 599.636719 C 309.816406 599.878906 304.910156 600 300 600 C 295.089844 600 290.183594 599.878906 285.28125 599.636719 C 280.375 599.398438 275.480469 599.035156 270.59375 598.554688 C 265.707031 598.074219 260.835938 597.472656 255.980469 596.753906 C 251.125 596.03125 246.289062 595.191406 241.472656 594.234375 C 236.65625 593.277344 231.867188 592.203125 227.105469 591.007812 C 222.34375 589.816406 217.613281 588.507812 212.914062 587.082031 C 208.214844 585.65625 203.554688 584.117188 198.933594 582.464844 C 194.308594 580.808594 189.730469 579.042969 185.195312 577.164062 C 180.660156 575.285156 176.171875 573.296875 171.734375 571.195312 C 167.296875 569.097656 162.910156 566.890625 158.582031 564.578125 C 154.25 562.261719 149.980469 559.84375 145.769531 557.320312 C 141.558594 554.792969 137.410156 552.167969 133.328125 549.441406 C 129.246094 546.714844 125.234375 543.886719 121.289062 540.960938 C 117.347656 538.039062 113.476562 535.019531 109.683594 531.902344 C 105.886719 528.789062 102.171875 525.582031 98.53125 522.285156 C 94.894531 518.988281 91.339844 515.605469 87.867188 512.132812 C 84.394531 508.660156 81.011719 505.105469 77.714844 501.46875 C 74.417969 497.828125 71.210938 494.113281 68.097656 490.316406 C 64.980469 486.523438 61.960938 482.652344 59.039062 478.710938 C 56.113281 474.765625 53.285156 470.753906 50.558594 466.671875 C 47.832031 462.589844 45.207031 458.441406 42.679688 454.230469 C 40.15625 450.019531 37.738281 445.75 35.421875 441.417969 C 33.109375 437.089844 30.902344 432.703125 28.804688 428.265625 C 26.703125 423.828125 24.714844 419.339844 22.835938 414.804688 C 20.957031 410.269531 19.191406 405.691406 17.535156 401.066406 C 15.882812 396.445312 14.34375 391.785156 12.917969 387.085938 C 11.492188 382.386719 10.183594 377.65625 8.992188 372.894531 C 7.796875 368.132812 6.722656 363.34375 5.765625 358.527344 C 4.804688 353.710938 3.96875 348.875 3.246094 344.019531 C 2.527344 339.164062 1.925781 334.292969 1.445312 329.40625 C 0.964844 324.519531 0.601562 319.625 0.363281 314.71875 C 0.121094 309.816406 0 304.910156 0 300 C 0 295.089844 0.121094 290.183594 0.363281 285.28125 C 0.601562 280.375 0.964844 275.480469 1.445312 270.59375 C 1.925781 265.707031 2.527344 260.835938 3.246094 255.980469 C 3.96875 251.125 4.804688 246.289062 5.765625 241.472656 C 6.722656 236.65625 7.796875 231.867188 8.992188 227.105469 C 10.183594 222.34375 11.492188 217.613281 12.917969 212.914062 C 14.34375 208.214844 15.882812 203.554688 17.535156 198.933594 C 19.191406 194.308594 20.957031 189.730469 22.835938 185.195312 C 24.714844 180.660156 26.703125 176.171875 28.804688 171.734375 C 30.902344 167.296875 33.109375 162.910156 35.421875 158.582031 C 37.738281 154.25 40.15625 149.980469 42.679688 145.769531 C 45.207031 141.558594 47.832031 137.410156 50.558594 133.328125 C 53.285156 129.246094 56.113281 125.234375 59.039062 121.289062 C 61.960938 117.347656 64.980469 113.476562 68.097656 109.683594 C 71.210938 105.886719 74.417969 102.171875 77.714844 98.53125 C 81.011719 94.894531 84.394531 91.339844 87.867188 87.867188 C 91.339844 84.394531 94.894531 81.011719 98.53125 77.714844 C 102.171875 74.417969 105.886719 71.210938 109.683594 68.097656 C 113.476562 64.980469 117.347656 61.960938 121.289062 59.039062 C 125.234375 56.113281 129.246094 53.285156 133.328125 50.558594 C 137.410156 47.832031 141.558594 45.207031 145.769531 42.679688 C 149.980469 40.15625 154.25 37.738281 158.582031 35.421875 C 162.910156 33.109375 167.296875 30.902344 171.734375 28.804688 C 176.171875 26.703125 180.660156 24.714844 185.195312 22.835938 C 189.730469 20.957031 194.308594 19.191406 198.933594 17.535156 C 203.554688 15.882812 208.214844 14.34375 212.914062 12.917969 C 217.613281 11.492188 222.34375 10.183594 227.105469 8.992188 C 231.867188 7.796875 236.65625 6.722656 241.472656 5.765625 C 246.289062 4.804688 251.125 3.96875 255.980469 3.246094 C 260.835938 2.527344 265.707031 1.925781 270.59375 1.445312 C 275.480469 0.964844 280.375 0.601562 285.28125 0.363281 C 290.183594 0.121094 295.089844 0 300 0 C 304.910156 0 309.816406 0.121094 314.71875 0.363281 C 319.625 0.601562 324.519531 0.964844 329.40625 1.445312 C 334.292969 1.925781 339.164062 2.527344 344.019531 3.246094 C 348.875 3.96875 353.710938 4.804688 358.527344 5.765625 C 363.34375 6.722656 368.132812 7.796875 372.894531 8.992188 C 377.65625 10.183594 382.386719 11.492188 387.085938 12.917969 C 391.785156 14.34375 396.445312 15.882812 401.066406 17.535156 C 405.691406 19.191406 410.269531 20.957031 414.804688 22.835938 C 419.339844 24.714844 423.828125 26.703125 428.265625 28.804688 C 432.703125 30.902344 437.089844 33.109375 441.417969 35.421875 C 445.75 37.738281 450.019531 40.15625 454.230469 42.679688 C 458.441406 45.207031 462.589844 47.832031 466.671875 50.558594 C 470.753906 53.285156 474.765625 56.113281 478.710938 59.039062 C 482.652344 61.960938 486.523438 64.980469 490.316406 68.097656 C 494.113281 71.210938 497.828125 74.417969 501.46875 77.714844 C 505.105469 81.011719 508.660156 84.394531 512.132812 87.867188 C 515.605469 91.339844 518.988281 94.894531 522.285156 98.53125 C 525.582031 102.171875 528.789062 105.886719 531.902344 109.683594 C 535.019531 113.476562 538.039062 117.347656 540.960938 121.289062 C 543.886719 125.234375 546.714844 129.246094 549.441406 133.328125 C 552.167969 137.410156 554.792969 141.558594 557.320312 145.769531 C 559.84375 149.980469 562.261719 154.25 564.578125 158.582031 C 566.890625 162.910156 569.097656 167.296875 571.195312 171.734375 C 573.296875 176.171875 575.285156 180.660156 577.164062 185.195312 C 579.042969 189.730469 580.808594 194.308594 582.464844 198.933594 C 584.117188 203.554688 585.65625 208.214844 587.082031 212.914062 C 588.507812 217.613281 589.816406 222.34375 591.007812 227.105469 C 592.203125 231.867188 593.277344 236.65625 594.234375 241.472656 C 595.191406 246.289062 596.03125 251.125 596.753906 255.980469 C 597.472656 260.835938 598.074219 265.707031 598.554688 270.59375 C 599.035156 275.480469 599.398438 280.375 599.636719 285.28125 C 599.878906 290.183594 600 295.089844 600 300 Z M 600 300 " fill-opacity="1" fill-rule="nonzero"/><path fill="#ffffff" d="M 393.523438 243.675781 C 379.199219 243.675781 367.5 231.976562 367.5 217.648438 L 367.5 169.5 L 218.101562 169.5 C 210.375 169.5 204.074219 175.800781 204.074219 183.523438 L 204.074219 465.976562 C 204.074219 473.699219 210.375 480 218.101562 480 L 427.726562 480 C 435.449219 480 441.75 473.699219 441.75 465.976562 L 441.75 243.675781 Z M 393.523438 243.675781 " fill-opacity="1" fill-rule="nonzero"/><path fill="#ffffff" d="M 393.523438 230.398438 L 432.300781 230.398438 L 380.851562 178.949219 L 380.851562 217.726562 C 380.925781 224.699219 386.550781 230.398438 393.523438 230.398438 Z M 393.523438 230.398438 " fill-opacity="1" fill-rule="nonzero"/><path fill="#ffffff" d="M 363.523438 156.148438 L 363.523438 134.023438 C 363.523438 126.300781 357.226562 120 349.5 120 L 172.273438 120 C 164.550781 120 158.25 126.300781 158.25 134.023438 L 158.25 408.375 C 158.25 416.101562 164.550781 422.398438 172.273438 422.398438 L 190.800781 422.398438 L 190.800781 183.523438 C 190.800781 168.449219 203.101562 156.148438 218.175781 156.148438 Z M 363.523438 156.148438 " fill-opacity="1" fill-rule="nonzero"/></svg>