<svg xmlns="http://www.w3.org/2000/svg" xmlns:xlink="http://www.w3.org/1999/xlink" width="800" zoomAndPan="magnify" viewBox="0 0 600 599.999999" height="800" preserveAspectRatio="xMidYMid meet" version="1.0"><path fill="#ffd21f" d="M 300 0 C 295.089844 0 290.183594 0.121094 285.28125 0.363281 C 280.375 0.601562 275.480469 0.964844 270.59375 1.445312 C 265.707031 1.925781 260.835938 2.527344 255.980469 3.246094 C 251.125 3.96875 246.289062 4.804688 241.472656 5.765625 C 236.65625 6.722656 231.867188 7.796875 227.105469 8.992188 C 222.34375 10.183594 217.613281 11.492188 212.914062 12.917969 C 208.214844 14.34375 203.554688 15.882812 198.933594 17.535156 C 194.308594 19.191406 189.730469 20.957031 185.195312 22.835938 C 180.660156 24.714844 176.171875 26.703125 171.734375 28.804688 C 167.296875 30.902344 162.910156 33.109375 158.582031 35.421875 C 154.25 37.738281 149.980469 40.15625 145.769531 42.679688 C 141.558594 45.207031 137.410156 47.832031 133.328125 50.558594 C 129.246094 53.285156 125.234375 56.113281 121.289062 59.039062 C 117.347656 61.960938 113.476562 64.980469 109.683594 68.097656 C 105.886719 71.210938 102.171875 74.417969 98.53125 77.714844 C 94.894531 81.011719 91.339844 84.394531 87.867188 87.867188 C 84.394531 91.339844 81.011719 94.894531 77.714844 98.53125 C 74.417969 102.171875 71.210938 105.886719 68.097656 109.683594 C 64.980469 113.476562 61.960938 117.347656 59.039062 121.289062 C 56.113281 125.234375 53.285156 129.246094 50.558594 133.328125 C 47.832031 137.410156 45.207031 141.558594 42.679688 145.769531 C 40.15625 149.980469 37.738281 154.25 35.421875 158.582031 C 33.109375 162.910156 30.902344 167.296875 28.804688 171.734375 C 26.703125 176.171875 24.714844 180.660156 22.835938 185.195312 C 20.957031 189.730469 19.191406 194.308594 17.535156 198.933594 C 15.882812 203.554688 14.34375 208.214844 12.917969 212.914062 C 11.492188 217.613281 10.183594 222.34375 8.992188 227.105469 C 7.796875 231.867188 6.722656 236.65625 5.765625 241.472656 C 4.804688 246.289062 3.96875 251.125 3.246094 255.980469 C 2.527344 260.835938 1.925781 265.707031 1.445312 270.59375 C 0.964844 275.480469 0.601562 280.375 0.363281 285.28125 C 0.121094 290.183594 0 295.089844 0 300 C 0 304.910156 0.121094 309.816406 0.363281 314.71875 C 0.601562 319.625 0.964844 324.519531 1.445312 329.40625 C 1.925781 334.292969 2.527344 339.164062 3.246094 344.019531 C 3.96875 348.875 4.804688 353.710938 5.765625 358.527344 C 6.722656 363.34375 7.796875 368.132812 8.992188 372.894531 C 10.183594 377.65625 11.492188 382.386719 12.917969 387.085938 C 14.34375 391.785156 15.882812 396.445312 17.535156 401.066406 C 19.191406 405.691406 20.957031 410.269531 22.835938 414.804688 C 24.714844 419.339844 26.703125 423.828125 28.804688 428.265625 C 30.902344 432.703125 33.109375 437.089844 35.421875 441.417969 C 37.738281 445.75 40.15625 450.019531 42.679688 454.230469 C 45.207031 458.441406 47.832031 462.589844 50.558594 466.671875 C 53.285156 470.753906 56.113281 474.765625 59.039062 478.710938 C 61.960938 482.652344 64.980469 486.523438 68.097656 490.316406 C 71.210938 494.113281 74.417969 497.828125 77.714844 501.46875 C 81.011719 505.105469 84.394531 508.660156 87.867188 512.132812 C 91.339844 515.605469 94.894531 518.988281 98.53125 522.285156 C 102.171875 525.582031 105.886719 528.789062 109.683594 531.902344 C 113.476562 535.019531 117.347656 538.039062 121.289062 540.960938 C 125.234375 543.886719 129.246094 546.714844 133.328125 549.441406 C 137.410156 552.167969 141.558594 554.792969 145.769531 557.320312 C 149.980469 559.84375 154.25 562.261719 158.582031 564.578125 C 162.910156 566.890625 167.296875 569.097656 171.734375 571.195312 C 176.171875 573.296875 180.660156 575.285156 185.195312 577.164062 C 189.730469 579.042969 194.308594 580.808594 198.933594 582.464844 C 203.554688 584.117188 208.214844 585.65625 212.914062 587.082031 C 217.613281 588.507812 222.34375 589.816406 227.105469 591.007812 C 231.867188 592.203125 236.65625 593.277344 241.472656 594.234375 C 246.289062 595.191406 251.125 596.03125 255.980469 596.753906 C 260.835938 597.472656 265.707031 598.074219 270.59375 598.554688 C 275.480469 599.035156 280.375 599.398438 285.28125 599.636719 C 290.183594 599.878906 295.089844 600 300 600 C 304.910156 600 309.816406 599.878906 314.71875 599.636719 C 319.625 599.398438 324.519531 599.035156 329.40625 598.554688 C 334.292969 598.074219 339.164062 597.472656 344.019531 596.753906 C 348.875 596.03125 353.710938 595.191406 358.527344 594.234375 C 363.34375 593.277344 368.132812 592.203125 372.894531 591.007812 C 377.65625 589.816406 382.386719 588.507812 387.085938 587.082031 C 391.785156 585.65625 396.445312 584.117188 401.066406 582.464844 C 405.691406 580.808594 410.269531 579.042969 414.804688 577.164062 C 419.339844 575.285156 423.828125 573.296875 428.265625 571.195312 C 432.703125 569.097656 437.089844 566.890625 441.417969 564.578125 C 445.75 562.261719 450.019531 559.84375 454.230469 557.320312 C 458.441406 554.792969 462.589844 552.167969 466.671875 549.441406 C 470.753906 546.714844 474.765625 543.886719 478.710938 540.960938 C 482.652344 538.039062 486.523438 535.019531 490.316406 531.902344 C 494.113281 528.789062 497.828125 525.582031 501.46875 522.285156 C 505.105469 518.988281 508.660156 515.605469 512.132812 512.132812 C 515.605469 508.660156 518.988281 505.105469 522.285156 501.46875 C 525.582031 497.828125 528.789062 494.113281 531.902344 490.316406 C 535.019531 486.523438 538.039062 482.652344 540.960938 478.710938 C 543.886719 474.765625 546.714844 470.753906 549.441406 466.671875 C 552.167969 462.589844 554.792969 458.441406 557.320312 454.230469 C 559.84375 450.019531 562.261719 445.75 564.578125 441.417969 C 566.890625 437.089844 569.097656 432.703125 571.195312 428.265625 C 573.296875 423.828125 575.285156 419.339844 577.164062 414.804688 C 579.042969 410.269531 580.808594 405.691406 582.464844 401.066406 C 584.117188 396.445312 585.65625 391.785156 587.082031 387.085938 C 588.507812 382.386719 589.816406 377.65625 591.007812 372.894531 C 592.203125 368.132812 593.277344 363.34375 594.234375 358.527344 C 595.191406 353.710938 596.03125 348.875 596.753906 344.019531 C 597.472656 339.164062 598.074219 334.292969 598.554688 329.40625 C 599.035156 324.519531 599.398438 319.625 599.636719 314.71875 C 599.878906 309.816406 600 304.910156 600 300 C 600 295.089844 599.878906 290.183594 599.636719 285.28125 C 599.398438 280.375 599.035156 275.480469 598.554688 270.59375 C 598.074219 265.707031 597.472656 260.835938 596.753906 255.980469 C 596.03125 251.125 595.191406 246.289062 594.234375 241.472656 C 593.277344 236.65625 592.203125 231.867188 591.007812 227.105469 C 589.816406 222.34375 588.507812 217.613281 587.082031 212.914062 C 585.65625 208.214844 584.117188 203.554688 582.464844 198.933594 C 580.808594 194.308594 579.042969 189.730469 577.164062 185.195312 C 575.285156 180.660156 573.296875 176.171875 571.195312 171.734375 C 569.097656 167.296875 566.890625 162.910156 564.578125 158.582031 C 562.261719 154.25 559.84375 149.980469 557.320312 145.769531 C 554.792969 141.558594 552.167969 137.410156 549.441406 133.328125 C 546.714844 129.246094 543.886719 125.234375 540.960938 121.289062 C 538.039062 117.347656 535.019531 113.476562 531.902344 109.683594 C 528.789062 105.886719 525.582031 102.171875 522.285156 98.53125 C 518.988281 94.894531 515.605469 91.339844 512.132812 87.867188 C 508.660156 84.394531 505.105469 81.011719 501.46875 77.714844 C 497.828125 74.417969 494.113281 71.210938 490.316406 68.097656 C 486.523438 64.980469 482.652344 61.960938 478.710938 59.039062 C 474.765625 56.113281 470.753906 53.285156 466.671875 50.558594 C 462.589844 47.832031 458.441406 45.207031 454.230469 42.679688 C 450.019531 40.15625 445.75 37.738281 441.417969 35.421875 C 437.089844 33.109375 432.703125 30.902344 428.265625 28.804688 C 423.828125 26.703125 419.339844 24.714844 414.804688 22.835938 C 410.269531 20.957031 405.691406 19.191406 401.066406 17.535156 C 396.445312 15.882812 391.785156 14.34375 387.085938 12.917969 C 382.386719 11.492188 377.65625 10.183594 372.894531 8.992188 C 368.132812 7.796875 363.34375 6.722656 358.527344 5.765625 C 353.710938 4.804688 348.875 3.96875 344.019531 3.246094 C 339.164062 2.527344 334.292969 1.925781 329.40625 1.445312 C 324.519531 0.964844 319.625 0.601562 314.71875 0.363281 C 309.816406 0.121094 304.910156 0 300 0 Z M 447.976562 248.4375 L 417.175781 279.238281 C 416.925781 279.535156 416.828125 279.90625 416.546875 280.183594 C 416.265625 280.460938 415.898438 280.5625 415.605469 280.8125 L 261.367188 435.058594 C 258.410156 438.03125 255.109375 440.558594 251.464844 442.640625 C 247.824219 444.71875 243.96875 446.277344 239.902344 447.3125 L 188.433594 460.199219 C 184.953125 461.066406 181.417969 461.503906 177.832031 461.507812 C 175.242188 461.527344 172.675781 461.292969 170.132812 460.804688 C 167.589844 460.320312 165.117188 459.585938 162.71875 458.613281 C 160.320312 457.636719 158.042969 456.433594 155.878906 455.007812 C 153.71875 453.582031 151.71875 451.957031 149.878906 450.132812 C 148.660156 448.894531 147.527344 447.578125 146.476562 446.191406 C 145.429688 444.800781 144.476562 443.351562 143.617188 441.835938 C 142.757812 440.324219 142 438.761719 141.34375 437.152344 C 140.691406 435.539062 140.140625 433.890625 139.699219 432.207031 C 139.261719 430.523438 138.929688 428.820312 138.710938 427.09375 C 138.492188 425.367188 138.386719 423.636719 138.394531 421.894531 C 138.402344 420.15625 138.523438 418.425781 138.757812 416.699219 C 138.988281 414.976562 139.335938 413.273438 139.789062 411.59375 L 152.691406 360.113281 C 153.71875 356.042969 155.273438 352.1875 157.351562 348.546875 C 159.429688 344.902344 161.957031 341.601562 164.933594 338.644531 L 351.546875 152.023438 C 352.496094 151.007812 353.492188 150.042969 354.535156 149.125 C 355.582031 148.210938 356.667969 147.347656 357.796875 146.535156 C 358.925781 145.726562 360.089844 144.972656 361.292969 144.273438 C 362.496094 143.578125 363.726562 142.941406 364.992188 142.367188 C 366.257812 141.789062 367.546875 141.277344 368.863281 140.828125 C 370.175781 140.378906 371.511719 139.992188 372.863281 139.675781 C 374.214844 139.355469 375.578125 139.101562 376.957031 138.917969 C 378.332031 138.730469 379.714844 138.613281 381.105469 138.5625 C 382.492188 138.511719 383.882812 138.527344 385.269531 138.613281 C 386.65625 138.699219 388.035156 138.851562 389.40625 139.074219 C 390.777344 139.292969 392.136719 139.578125 393.480469 139.933594 C 394.824219 140.285156 396.148438 140.703125 397.453125 141.1875 C 398.753906 141.667969 400.03125 142.214844 401.28125 142.820312 C 402.53125 143.429688 403.746094 144.09375 404.933594 144.820312 C 406.117188 145.546875 407.261719 146.332031 408.371094 147.167969 C 409.480469 148.007812 410.542969 148.898438 411.566406 149.84375 L 450.144531 188.433594 C 451.972656 190.273438 453.601562 192.273438 455.03125 194.433594 C 456.460938 196.59375 457.664062 198.875 458.640625 201.277344 C 459.617188 203.675781 460.351562 206.148438 460.835938 208.695312 C 461.324219 211.242188 461.554688 213.808594 461.53125 216.402344 C 461.5 219.382812 461.183594 222.335938 460.574219 225.257812 C 459.96875 228.175781 459.082031 231.011719 457.921875 233.757812 C 456.757812 236.507812 455.339844 239.117188 453.667969 241.585938 C 451.992188 244.054688 450.097656 246.339844 447.976562 248.4375 Z M 447.976562 248.4375 " fill-opacity="1" fill-rule="nonzero"/><path fill="#ffd21f" d="M 392.300781 169.125 C 391.128906 167.996094 389.789062 167.136719 388.277344 166.546875 C 386.761719 165.957031 385.195312 165.679688 383.570312 165.714844 C 381.164062 165.773438 378.859375 166.285156 376.652344 167.253906 C 374.449219 168.222656 372.511719 169.574219 370.839844 171.308594 L 348.898438 193.246094 L 406.757812 251.101562 L 428.703125 229.152344 C 430.433594 227.480469 431.777344 225.542969 432.742188 223.339844 C 433.707031 221.132812 434.214844 218.828125 434.269531 216.421875 C 434.308594 214.804688 434.039062 213.238281 433.449219 211.730469 C 432.863281 210.21875 432.007812 208.882812 430.882812 207.714844 Z M 392.300781 169.125 " fill-opacity="1" fill-rule="nonzero"/><path fill="#ffd21f" d="M 184.222656 357.925781 C 181.722656 360.390625 180.03125 363.320312 179.148438 366.71875 L 166.246094 418.199219 C 165.875 419.28125 165.65625 420.398438 165.597656 421.539062 C 165.535156 422.683594 165.636719 423.816406 165.894531 424.929688 C 166.152344 426.046875 166.558594 427.105469 167.113281 428.105469 C 167.671875 429.109375 168.355469 430.015625 169.164062 430.824219 C 169.976562 431.632812 170.882812 432.316406 171.882812 432.871094 C 172.886719 433.425781 173.945312 433.832031 175.0625 434.085938 C 176.179688 434.34375 177.308594 434.441406 178.453125 434.378906 C 179.597656 434.320312 180.710938 434.101562 181.792969 433.726562 L 233.261719 420.835938 C 236.671875 419.972656 239.609375 418.285156 242.078125 415.777344 L 387.457031 270.382812 L 329.613281 212.53125 Z M 184.222656 357.925781 " fill-opacity="1" fill-rule="nonzero"/></svg>