<svg xmlns="http://www.w3.org/2000/svg" xmlns:xlink="http://www.w3.org/1999/xlink" width="800" zoomAndPan="magnify" viewBox="0 0 600 599.999999" height="800" preserveAspectRatio="xMidYMid meet" version="1.0"><path fill="#4ca626" d="M 600.007812 300.007812 C 600.007812 465.820312 465.75 600.070312 300.0625 600.070312 C 134.308594 600.070312 -0.0078125 465.824219 -0.0078125 300.007812 C -0.0078125 134.308594 134.308594 -0.0117188 300.0625 -0.0117188 C 465.75 -0.0117188 600.007812 134.308594 600.007812 300.007812 Z M 600.007812 300.007812 " fill-opacity="1" fill-rule="nonzero"/><path fill="#ffffff" d="M 250.714844 486.550781 L 249.3125 486.542969 C 232.34375 486.152344 216.230469 478.496094 205.097656 465.566406 L 100.019531 343.09375 C 89.609375 331.117188 84.476562 315.652344 85.65625 299.628906 C 86.832031 283.515625 94.226562 268.851562 106.484375 258.339844 C 117.308594 248.960938 131.230469 243.769531 145.617188 243.769531 C 163.238281 243.769531 179.910156 251.480469 191.355469 264.925781 L 252.757812 336.269531 L 410.488281 168.351562 C 421.742188 156.304688 437.703125 149.359375 454.25 149.359375 C 469.679688 149.359375 484.34375 155.226562 495.542969 165.882812 C 519.574219 188.347656 520.84375 226.476562 498.25 250.75 L 294.5625 467.527344 C 283.292969 479.605469 267.296875 486.550781 250.714844 486.550781 Z M 250.117188 444.0625 L 250.71875 444.0625 C 255.566406 444.0625 260.242188 442.039062 263.550781 438.492188 L 467.21875 221.734375 C 473.820312 214.632812 473.484375 203.425781 466.398438 196.800781 C 463 193.5625 458.730469 191.847656 454.25 191.847656 C 449.363281 191.847656 444.832031 193.820312 441.496094 197.386719 L 251.378906 399.789062 L 159.074219 292.554688 C 155.636719 288.515625 150.761719 286.25 145.613281 286.25 C 142.667969 286.25 138.300781 286.984375 134.226562 290.523438 C 130.546875 293.671875 128.375 297.992188 128.023438 302.730469 C 127.6875 307.386719 129.160156 311.859375 132.179688 315.328125 L 237.324219 437.878906 C 240.511719 441.574219 245.292969 443.890625 250.117188 444.0625 Z M 250.117188 444.0625 " fill-opacity="1" fill-rule="nonzero"/></svg>